<svg id="Layer_1" data-name="Layer 1" xmlns="http://www.w3.org/2000/svg" width="1121.8" height="533.9" viewBox="0 0 1121.8 533.9">
  <defs>
    <style>
      .cls-1 {
        fill: #1a1a1a;
      }

      .cls-2 {
        fill: #fff;
      }

      .cls-3 {
        fill: #141414;
      }

      .cls-4 {
        fill: #0f0f0f;
      }

      .cls-5 {
        isolation: isolate;
      }

      .cls-6 {
        fill: #fcee21;
      }

      .cls-7 {
        fill: #40e2a0;
      }

      .cls-8 {
        fill: #0071bc;
      }

      .cls-9 {
        fill: #ff69f8;
      }

      .cls-10 {
        fill: #39b54a;
      }

      .cls-11 {
        fill: #7cb2e8;
      }

      .cls-12 {
        fill: #c1272d;
      }

      .cls-13 {
        fill: #f66;
      }
    </style>
  </defs>
  <g>
    <g>
      <circle cx="565.8" cy="192.5" r="72"/>
      <circle class="cls-1" cx="565.8" cy="192.5" r="61.7"/>
    </g>
    <g>
      <circle cx="720.8" cy="126.5" r="72"/>
      <circle class="cls-1" cx="720.8" cy="126.5" r="61.7"/>
    </g>
    <g>
      <circle cx="888.8" cy="154.5" r="72"/>
      <circle class="cls-1" cx="888.8" cy="154.5" r="61.7"/>
    </g>
    <g>
      <circle cx="1049.8" cy="225.5" r="72"/>
      <circle class="cls-1" cx="1049.8" cy="225.5" r="61.7" transform="translate(645.58 1220.25) rotate(-80.01)"/>
    </g>
    <g>
      <circle cx="1018.8" cy="407.5" r="72" transform="translate(453.37 1347.87) rotate(-80.78)"/>
      <circle class="cls-1" cx="1018.8" cy="407.5" r="61.7"/>
    </g>
    <g>
      <circle cx="857.8" cy="336.5" r="72"/>
      <circle class="cls-1" cx="857.8" cy="336.5" r="61.7"/>
    </g>
    <g>
      <circle cx="688.8" cy="308.5" r="72"/>
      <circle class="cls-1" cx="688.8" cy="308.5" r="61.7"/>
    </g>
    <g>
      <circle cx="532.8" cy="373.5" r="72"/>
      <circle class="cls-1" cx="532.8" cy="373.5" r="61.7"/>
    </g>
  </g>
  <circle cx="303.8" cy="308.5" r="57"/>
  <g>
    <circle cx="82.4" cy="92.5" r="41"/>
    <circle class="cls-1" cx="82.4" cy="92.5" r="35.1"/>
  </g>
  <path class="cls-1" d="M104.5,192.7H58.4a16,16,0,0,1-16-16h0a16,16,0,0,1,16-16h46.1a16,16,0,0,1,16,16h0A16.11,16.11,0,0,1,104.5,192.7Z"/>
  <g>
    <circle cx="81.3" cy="235.5" r="41"/>
    <circle class="cls-1" cx="81.3" cy="235.5" r="35.1"/>
  </g>
  <g>
    <path class="cls-2" d="M52.1,179.1c0,1.9,1.5,2.6,3.2,2.6,1.1,0,2.8-.3,2.8-1.8s-2.2-1.8-4.2-2.4-4.3-1.4-4.3-4.1c0-2.9,2.8-4.3,5.3-4.3,3,0,5.7,1.3,5.7,4.6h-3c-.1-1.7-1.3-2.2-2.8-2.2-1,0-2.2.4-2.2,1.6s.7,1.3,4.3,2.2c1.1.2,4.2.9,4.2,4.2,0,2.6-2,4.6-5.9,4.6-3.2,0-6.1-1.6-6.1-5.1h3Z"/>
    <path class="cls-2" d="M66.1,172.2H61.8v-2.6H73.5v2.6H69.2v11.6H66.1Z"/>
    <path class="cls-2" d="M79,169.6h3.2l5.3,14.3H84.2l-1.1-3.2H77.8l-1.1,3.2H73.5Zm-.3,8.7h3.7l-1.8-5.2h0Z"/>
    <path class="cls-2" d="M88.8,169.6h7.7a3.92,3.92,0,0,1,4.2,3.9,3.58,3.58,0,0,1-2.3,3.6h0c1.5.4,2,1.9,2.1,3.3.1.9,0,2.6.6,3.4H98a17.36,17.36,0,0,1-.5-3.4c-.2-1.5-.8-2.2-2.4-2.2H92v5.6H88.9V169.6ZM92,176h3.4c1.4,0,2.2-.6,2.2-2s-.7-2-2.2-2H92Z"/>
    <path class="cls-2" d="M106.4,172.2h-4.3v-2.6h11.7v2.6h-4.3v11.6h-3.1Z"/>
  </g>
  <path class="cls-1" d="M149.9,46H16A16,16,0,0,1,0,30H0A16,16,0,0,1,16,14H149.9a16,16,0,0,1,16,16h0A16.11,16.11,0,0,1,149.9,46Z"/>
  <g>
    <path class="cls-2" d="M7,22.9h6.7c2.7,0,4.6.9,4.6,3.5a3.19,3.19,0,0,1-1.9,3A3.38,3.38,0,0,1,19,33c0,2.9-2.5,4.1-5,4.1H7Zm3.2,5.8h3.2c1.1,0,1.9-.5,1.9-1.7s-1-1.6-2.2-1.6H10.2Zm0,6h3.4c1.2,0,2.3-.4,2.3-1.9s-.9-2-2.3-2H10.2Z"/>
    <path class="cls-2" d="M25,22.9h3.2l5.3,14.3H30.2l-1-3.2H23.9l-1.1,3.2H19.6Zm-.3,8.7h3.7l-1.8-5.2h0Z"/>
    <path class="cls-2" d="M44.3,27.7a3.13,3.13,0,0,0-3.1-2.5c-2.8,0-3.9,2.4-3.9,4.9s1.1,4.8,3.9,4.8c1.9,0,3-1.3,3.2-3.2h3a6,6,0,0,1-6.3,5.8c-4.4,0-7-3.3-7-7.4s2.6-7.5,7-7.5c3.1,0,5.8,1.8,6.2,5.1Z"/>
    <path class="cls-2" d="M49.6,22.9h3.1v5.9l5.6-5.9h3.9l-5.6,5.6,6.1,8.6H58.8l-4.3-6.4-1.8,1.8v4.6H49.6Z"/>
    <path class="cls-2" d="M73.6,22.5h2.3l-5.6,15H68Z"/>
    <path class="cls-2" d="M84.8,32.4c0,1.9,1.5,2.6,3.2,2.6,1.1,0,2.8-.3,2.8-1.8s-2.2-1.8-4.2-2.4-4.3-1.4-4.3-4.1c0-2.9,2.8-4.3,5.3-4.3,3,0,5.7,1.3,5.7,4.6h-3c-.1-1.7-1.3-2.2-2.8-2.2-1,0-2.2.4-2.2,1.6s.7,1.3,4.3,2.2c1.1.2,4.2.9,4.2,4.2,0,2.6-2,4.6-5.9,4.6-3.2,0-6.1-1.6-6.1-5.1h3Z"/>
    <path class="cls-2" d="M95.6,22.9h10.7v2.6H98.8v3.1h6.9V31H98.8v3.5h7.7v2.6H95.6Z"/>
    <path class="cls-2" d="M108.6,22.9h3.1V34.5h7v2.6H108.6Z"/>
    <path class="cls-2" d="M120.4,22.9h10.7v2.6h-7.5v3.1h6.9V31h-6.9v3.5h7.7v2.6H120.5V22.9Z"/>
    <path class="cls-2" d="M142.9,27.7a3.13,3.13,0,0,0-3.1-2.5c-2.8,0-3.9,2.4-3.9,4.9s1.1,4.8,3.9,4.8c1.9,0,3-1.3,3.2-3.2h3a6,6,0,0,1-6.3,5.8c-4.4,0-7-3.3-7-7.4s2.6-7.5,7-7.5c3.1,0,5.8,1.8,6.2,5.1Z"/>
    <path class="cls-2" d="M151.4,25.5h-4.3V22.9h11.7v2.6h-4.3V37.1h-3.1V25.5Z"/>
  </g>
  <g>
    <g>
      <g id="ABXY">
        <g id="B">
          <circle class="cls-3" cx="1084.8" cy="126.5" r="27.1"/>
        </g>
      </g>
      <g>
        <path class="cls-2" d="M1082.8,137h-12.5V116h4.7v17.2h7.8Z"/>
        <path class="cls-2" d="M1101.4,130.7a5.74,5.74,0,0,1-2.1,4.6,8.9,8.9,0,0,1-5.6,1.7h-8.1V116h7.6a9.39,9.39,0,0,1,5.4,1.3,4.13,4.13,0,0,1,1.9,3.6,4.36,4.36,0,0,1-1.1,2.9,5.1,5.1,0,0,1-3,1.8v.1a6.29,6.29,0,0,1,3.6,1.6A4.94,4.94,0,0,1,1101.4,130.7Zm-5.9-8.9c0-1.5-1.2-2.3-3.5-2.3h-1.8v5h2.1a3.33,3.33,0,0,0,2.3-.7A2.25,2.25,0,0,0,1095.5,121.8Zm.9,8.9a2.52,2.52,0,0,0-.9-2,4,4,0,0,0-2.6-.7h-2.6v5.5h2.6a4.24,4.24,0,0,0,2.6-.8A2.26,2.26,0,0,0,1096.4,130.7Z"/>
      </g>
    </g>
    <g>
      <g>
        <path class="cls-1" d="M1015,152.7a26.3,26.3,0,1,1,26.3-26.3A26.33,26.33,0,0,1,1015,152.7Z"/>
        <path class="cls-4" d="M1015,101.3a25.3,25.3,0,1,1-25.3,25.3,25.33,25.33,0,0,1,25.3-25.3m0-2a27.3,27.3,0,1,0,27.3,27.3A27.34,27.34,0,0,0,1015,99.3Z"/>
      </g>
      <g>
        <path class="cls-2" d="M1001.3,115.8h4.7v17.5h10.4v4h-15.1V115.8Z"/>
        <path class="cls-2" d="M1028.8,137.2h-4.3V123.6h-5.3v-3.2c3,.1,5.7-1,6.2-4.2h3.4Z"/>
      </g>
    </g>
  </g>
  <g>
    <g id="ABXY-2" data-name="ABXY">
      <g id="B-2" data-name="B">
        <circle class="cls-3" cx="923.8" cy="55.2" r="27.1"/>
      </g>
    </g>
    <g>
      <path class="cls-2" d="M923.5,65.8h-5.4L916,60.4c-.7-1.8-1.6-2.6-2.8-2.6h-1v8h-4.7v-21H915c5.1,0,7.6,1.9,7.6,5.7a5.67,5.67,0,0,1-1.2,3.7,6.5,6.5,0,0,1-3.5,2.1v.1a5.59,5.59,0,0,1,3,3.2Zm-6-14.8c0-1.8-1.1-2.8-3.3-2.8h-2.1V54h2.1a3.24,3.24,0,0,0,2.4-.9A2.34,2.34,0,0,0,917.5,51Z"/>
      <path class="cls-2" d="M942.2,59.5a5.74,5.74,0,0,1-2.1,4.6,8.9,8.9,0,0,1-5.6,1.7h-8.1v-21H934a9.39,9.39,0,0,1,5.4,1.3,4.13,4.13,0,0,1,1.9,3.6,4.36,4.36,0,0,1-1.1,2.9,5.1,5.1,0,0,1-3,1.8v.1a6.29,6.29,0,0,1,3.6,1.6A4.39,4.39,0,0,1,942.2,59.5Zm-5.8-9c0-1.5-1.2-2.3-3.5-2.3h-1.8v5h2.1a3.33,3.33,0,0,0,2.3-.7A2.38,2.38,0,0,0,936.4,50.5Zm.9,8.9a2.52,2.52,0,0,0-.9-2,4,4,0,0,0-2.6-.7h-2.6v5.5h2.6a4.24,4.24,0,0,0,2.6-.8A2.53,2.53,0,0,0,937.3,59.4Z"/>
    </g>
    <g>
      <g>
        <path class="cls-1" d="M854,81.5a26.25,26.25,0,1,1,26.3-26.3A26.33,26.33,0,0,1,854,81.5Z"/>
        <path class="cls-4" d="M854,30a25.25,25.25,0,1,1-25.3,25.2A25.31,25.31,0,0,1,854,30m0-2a27.25,27.25,0,1,0,27.3,27.2A27.31,27.31,0,0,0,854,28Z"/>
      </g>
      <g>
        <path class="cls-2" d="M838.4,44.5h11.5a6,6,0,0,1,6.3,5.9,5.33,5.33,0,0,1-3.4,5.4v.1c2.3.6,3,2.8,3.1,5,.1,1.4,0,3.9.9,5.1h-4.7a36.39,36.39,0,0,1-.8-5.1c-.3-2.3-1.2-3.2-3.6-3.2H843V66h-4.7V44.5Zm4.7,9.7h5.2c2.1,0,3.2-.9,3.2-3.1s-1.1-3-3.2-3h-5.2Z"/>
        <path class="cls-2" d="M869.7,66h-4.3V52.3h-5.3V49.1c3,.1,5.7-1,6.2-4.2h3.4V66Z"/>
      </g>
    </g>
  </g>
  <g>
    <g>
      <g id="Y">
        <circle class="cls-3" cx="755.7" cy="27.1" r="27.1"/>
      </g>
      <g class="cls-5">
        <path class="cls-6" d="M758.4,31.8V44.4h-5.7V32L741.5,9.8H748l7,14.4a11.22,11.22,0,0,1,.5,1.3c.1.4.2.7.3,1h0a9.75,9.75,0,0,1,.8-2.2l7.2-14.5h6.1Z"/>
      </g>
    </g>
    <g>
      <g>
        <path class="cls-1" d="M686.1,53.5a26.25,26.25,0,1,1,26.3-26.2A26.33,26.33,0,0,1,686.1,53.5Z"/>
        <path class="cls-4" d="M686.1,2a25.3,25.3,0,1,1-25.3,25.3A25.33,25.33,0,0,1,686.1,2m0-2a27.3,27.3,0,1,0,27.3,27.3A27.34,27.34,0,0,0,686.1,0Z"/>
      </g>
      <path class="cls-7" d="M702.1,35.2l-16-27.6-16,27.6L668.5,38h35.2Zm-16,0H673.4l12.7-21.9,12.7,21.9Z"/>
    </g>
  </g>
  <g>
    <g>
      <g id="X">
        <circle class="cls-3" cx="600.6" cy="92.8" r="27.1"/>
      </g>
      <g class="cls-5">
        <path class="cls-8" d="M608.8,110.1l-7.3-12.6a3.55,3.55,0,0,1-.4-.9l-.3-.9h-.1l-.3.9a3.55,3.55,0,0,1-.4.9l-7.5,12.6h-7l11.6-17.4L586.5,75.4h7.1l6.2,11.4a11.4,11.4,0,0,1,1.2,2.6h.1a18.68,18.68,0,0,0,.7-1.8c.1-.3,2.5-4.3,7.2-12.2h6.5L604.7,92.6l11,17.5Z"/>
      </g>
    </g>
    <g>
      <g>
        <path class="cls-1" d="M531.2,119.1a26.3,26.3,0,1,1,26.3-26.3A26.25,26.25,0,0,1,531.2,119.1Z"/>
        <path class="cls-4" d="M531.2,67.6A25.3,25.3,0,1,1,506,92.8a25.33,25.33,0,0,1,25.2-25.2m0-2a27.3,27.3,0,1,0,27.3,27.3,27.34,27.34,0,0,0-27.3-27.3Z"/>
      </g>
      <path class="cls-9" d="M542.7,78.4H516.9V107h28.6V78.4Zm0,25.9h-23v-23h23Z"/>
    </g>
  </g>
  <g>
    <g>
      <g id="A">
        <circle class="cls-3" cx="567.7" cy="472.9" r="27.1"/>
      </g>
      <g class="cls-5">
        <path class="cls-10" d="M577.7,490.2l-3.2-8.7H560.6l-3,8.7h-6.3l13.1-34.6h6.4L584,490.2Zm-10-29.4h-.1a13.75,13.75,0,0,1-.5,2.5l-4.7,13.4H573l-4.8-13.4A8.12,8.12,0,0,1,567.7,460.8Z"/>
      </g>
    </g>
    <g>
      <g>
        <path class="cls-1" d="M498.1,499a26.3,26.3,0,1,1,26.2-26.3A26.33,26.33,0,0,1,498.1,499Z"/>
        <path class="cls-4" d="M498.1,447.5a25.25,25.25,0,1,1-25.3,25.2,25.33,25.33,0,0,1,25.3-25.2m0-2a27.3,27.3,0,1,0,27.3,27.3,27.34,27.34,0,0,0-27.3-27.3Z"/>
      </g>
      <polygon class="cls-11" points="512.5 460.4 510.5 458.4 498.1 470.7 485.8 458.4 483.8 460.4 496.1 472.7 483.8 485.1 485.8 487.1 498.1 474.8 510.5 487.1 512.5 485.1 500.1 472.7 512.5 460.4"/>
    </g>
  </g>
  <g>
    <g id="ABXY-3" data-name="ABXY">
      <g>
        <g id="B-3" data-name="B">
          <circle class="cls-3" cx="723.8" cy="408.5" r="27.1"/>
        </g>
        <g class="cls-5">
          <path class="cls-12" d="M735.5,415.7a9,9,0,0,1-3.3,7.3,12.72,12.72,0,0,1-8.6,2.8H712.3V391.2h10.9a12.9,12.9,0,0,1,7.8,2.1,6.93,6.93,0,0,1,2.9,5.8,8.16,8.16,0,0,1-1.7,5,8.39,8.39,0,0,1-4.5,3v.1a9.05,9.05,0,0,1,5.8,2.7A8.88,8.88,0,0,1,735.5,415.7Zm-7.8-15.5a3.8,3.8,0,0,0-1.5-3.2,8,8,0,0,0-4.6-1.1h-3.7v9.6h3.7a6.73,6.73,0,0,0,4.5-1.4A4.59,4.59,0,0,0,727.7,400.2Zm1.7,15.4a4.58,4.58,0,0,0-1.8-3.9,8.81,8.81,0,0,0-5.3-1.4H718v10.8h4.9a7.36,7.36,0,0,0,4.9-1.5A5.58,5.58,0,0,0,729.4,415.6Z"/>
        </g>
      </g>
    </g>
    <g>
      <g>
        <path class="cls-1" d="M654,434.7a26.3,26.3,0,1,1,26.3-26.3A26.33,26.33,0,0,1,654,434.7Z"/>
        <path class="cls-4" d="M654,383.3a25.25,25.25,0,1,1-25.3,25.2A25.33,25.33,0,0,1,654,383.3m0-2a27.3,27.3,0,1,0,27.3,27.3A27.34,27.34,0,0,0,654,381.3Z"/>
      </g>
      <path class="cls-13" d="M654,389.6a18.9,18.9,0,1,0,18.9,18.9A18.95,18.95,0,0,0,654,389.6Zm0,34.9a16,16,0,1,1,16-16A16,16,0,0,1,654,424.5Z"/>
    </g>
  </g>
  <g>
    <g>
      <g id="ABXY-4" data-name="ABXY">
        <g id="B-4" data-name="B">
          <circle class="cls-3" cx="892.8" cy="435.7" r="27.1"/>
        </g>
      </g>
      <g>
        <path class="cls-2" d="M893,446.3h-5.4l-2.1-5.4c-.7-1.8-1.6-2.6-2.8-2.6h-1v8H877v-21h7.5c5.1,0,7.6,1.9,7.6,5.7a5.67,5.67,0,0,1-1.2,3.7,6.5,6.5,0,0,1-3.5,2.1v.1a5.59,5.59,0,0,1,3,3.2Zm-6-14.8c0-1.8-1.1-2.8-3.3-2.8h-2.1v5.8h2.1a3.24,3.24,0,0,0,2.4-.9A2.34,2.34,0,0,0,887,431.5Z"/>
        <path class="cls-2" d="M910.7,429.1h-6v17.2H900V429.1h-6v-3.9h16.7Z"/>
      </g>
    </g>
    <g>
      <g>
        <path class="cls-1" d="M823,462a26.3,26.3,0,1,1,26.3-26.3A26.33,26.33,0,0,1,823,462Z"/>
        <path class="cls-4" d="M823,410.5a25.25,25.25,0,1,1-25.3,25.2A25.33,25.33,0,0,1,823,410.5m0-2a27.25,27.25,0,1,0,27.3,27.2A27.34,27.34,0,0,0,823,408.5Z"/>
      </g>
      <g>
        <path class="cls-2" d="M834.7,435.8c-3.2,2.6-4.8,3.9-4.9,4a10.42,10.42,0,0,0-3,6.8h14.8v-3.9h-9.4a8.36,8.36,0,0,1,3.2-2.8,24.08,24.08,0,0,0,4.1-3.1,7.2,7.2,0,0,0,2-5,6.28,6.28,0,0,0-2.1-5,7.74,7.74,0,0,0-5.3-1.8c-4.7,0-7.1,2.5-7.1,7.6h4.1c.1-2.7,1.1-4.1,3.1-4.1s3,1,3,3.1C837.3,433,836.5,434.5,834.7,435.8Z"/>
        <path class="cls-2" d="M809.1,438.1h4.6c2.2,0,3.5.9,3.6,2.8s.3,3.8.5,5.7h4.9V446c-.7-.2-1-1-1-2.3a6.25,6.25,0,0,1,.1-1.2v-1.1c0-2.6-.9-4.4-2.7-5.2,2.2-.7,3.3-2.5,3.3-5.1a5.55,5.55,0,0,0-1.9-4.5,7.23,7.23,0,0,0-4.9-1.6h-11v21.7h4.6v-8.6Zm0-9.4h5.6c2.1,0,3.2.9,3.2,2.8s-1.2,2.9-3.5,2.9h-5.2v-5.7Z"/>
      </g>
    </g>
  </g>
  <g>
    <g>
      <g id="ABXY-5" data-name="ABXY">
        <g id="B-5" data-name="B">
          <circle class="cls-3" cx="1052.7" cy="506.5" r="27.1"/>
        </g>
      </g>
      <g>
        <path class="cls-2" d="M1052.2,517h-12.5V496h4.7v17.2h7.8Z"/>
        <path class="cls-2" d="M1067.8,499.8h-6V517h-4.7V499.8h-6V496h16.7Z"/>
      </g>
    </g>
    <g>
      <g>
        <path class="cls-1" d="M983,532.7a26.25,26.25,0,1,1,26.3-26.2A26.31,26.31,0,0,1,983,532.7Z"/>
        <path class="cls-4" d="M983,481.3a25.3,25.3,0,1,1-25.3,25.3A25.33,25.33,0,0,1,983,481.3m0-2a27.3,27.3,0,1,0,27.3,27.3A27.34,27.34,0,0,0,983,479.3Z"/>
      </g>
      <g>
        <path class="cls-2" d="M993.6,506.6c-3.2,2.6-4.8,3.9-4.9,4a10.42,10.42,0,0,0-3,6.8h14.8v-3.9h-9.4a8.36,8.36,0,0,1,3.2-2.8,24.08,24.08,0,0,0,4.1-3.1,7.2,7.2,0,0,0,2-5,6.28,6.28,0,0,0-2.1-5,7.74,7.74,0,0,0-5.3-1.8c-4.7,0-7.1,2.5-7.1,7.6H990c.1-2.7,1.1-4.1,3.1-4.1s3,1,3,3.1C996.3,503.8,995.4,505.2,993.6,506.6Z"/>
        <polygon class="cls-2" points="980.7 513.3 970 513.3 970 495.7 965.5 495.7 965.5 517.3 980.7 517.3 980.7 513.3"/>
      </g>
    </g>
  </g>
</svg>
