<?xml version="1.0" encoding="UTF-8"?>
<svg xmlns="http://www.w3.org/2000/svg" version="1.1" viewBox="0 0 1121.8 533.9">
  <defs>
    <style>
      .cls-1 {
        fill: #1a1a1a;
      }
    </style>
  </defs>
  <!-- Generator: Adobe Illustrator 28.6.0, SVG Export Plug-In . SVG Version: 1.2.0 Build 709)  -->
  <g>
    <g id="Layer_1">
      <g>
        <circle cx="563.1" cy="141.5" r="72"/>
        <circle class="cls-1" cx="563.1" cy="141.5" r="61.7"/>
      </g>
      <g>
        <circle cx="718.1" cy="75.5" r="72"/>
        <circle class="cls-1" cx="718.1" cy="75.5" r="61.7"/>
      </g>
      <g>
        <circle cx="886.1" cy="103.5" r="72"/>
        <circle class="cls-1" cx="886.1" cy="103.5" r="61.7"/>
      </g>
      <g>
        <circle cx="1047.1" cy="174.5" r="72"/>
        <circle class="cls-1" cx="1047.1" cy="174.5" r="61.7" transform="translate(525.3 1098.9) rotate(-70)"/>
      </g>
      <g>
        <circle cx="1016.1" cy="356.5" r="72" transform="translate(45.5 822.9) rotate(-45)"/>
        <circle class="cls-1" cx="1016.1" cy="356.5" r="61.7"/>
      </g>
      <g>
        <circle cx="855.1" cy="285.5" r="72"/>
        <circle class="cls-1" cx="855.1" cy="285.5" r="61.7"/>
      </g>
      <g>
        <circle cx="686.1" cy="257.5" r="72"/>
        <circle class="cls-1" cx="686.1" cy="257.5" r="61.7"/>
      </g>
      <g>
        <circle cx="530.1" cy="322.5" r="72"/>
        <circle class="cls-1" cx="530.1" cy="322.5" r="61.7"/>
      </g>
      <g>
        <circle cx="410" cy="205.7" r="72"/>
        <circle class="cls-1" cx="410" cy="205.7" r="61.7"/>
      </g>
      <g>
        <circle cx="74.7" cy="118.4" r="72"/>
        <circle class="cls-1" cx="74.7" cy="118.4" r="61.7"/>
      </g>
      <g>
        <circle cx="263.9" cy="133.7" r="72"/>
        <circle class="cls-1" cx="263.9" cy="133.7" r="61.7"/>
      </g>
      <g>
        <circle cx="399.7" cy="452.7" r="72"/>
        <circle class="cls-1" cx="399.7" cy="452.7" r="61.7"/>
      </g>
    </g>
  </g>
</svg>